<svg xmlns="http://www.w3.org/2000/svg" width="512" height="512" viewBox="0 0 512 512">
  <defs>
    <linearGradient id="mw-bg" x1="0" x2="0" y1="0" y2="1">
      <stop offset="0%" stop-color="#041a27"/>
      <stop offset="50%" stop-color="#0a2e45"/>
      <stop offset="100%" stop-color="#0f2234"/>
    </linearGradient>
    <linearGradient id="mw-gear" x1="0" x2="0" y1="0" y2="1">
      <stop offset="0%" stop-color="#e5eef9"/>
      <stop offset="50%" stop-color="#9bb6ce"/>
      <stop offset="100%" stop-color="#5d6f84"/>
    </linearGradient>
    <linearGradient id="mw-gear-shadow" x1="0" x2="0" y1="0" y2="1">
      <stop offset="0%" stop-color="#5f7489"/>
      <stop offset="100%" stop-color="#2a3644"/>
    </linearGradient>
    <linearGradient id="mw-nozzle" x1="0" x2="1" y1="0" y2="1">
      <stop offset="0%" stop-color="#f3f8ff"/>
      <stop offset="100%" stop-color="#9eb4c8"/>
    </linearGradient>
    <filter id="mw-shadow" x="-15%" y="-15%" width="130%" height="130%">
      <feDropShadow dx="0" dy="14" stdDeviation="20" flood-color="#03121e" flood-opacity="0.8"/>
    </filter>
  </defs>
  <rect width="512" height="512" rx="120" fill="url(#mw-bg)"/>
  <g filter="url(#mw-shadow)">
    <circle cx="256" cy="240" r="178" fill="url(#mw-gear-shadow)" opacity="0.35"/>
    <circle cx="256" cy="232" r="170" fill="url(#mw-gear)"/>
    <g fill="#a9c1d8">
      <rect x="246" y="62" width="20" height="70" rx="8"/>
      <rect x="246" y="332" width="20" height="70" rx="8"/>
      <rect x="346" y="162" width="20" height="70" rx="8" transform="rotate(45 356 197)"/>
      <rect x="346" y="262" width="20" height="70" rx="8" transform="rotate(135 356 297)"/>
      <rect x="146" y="162" width="20" height="70" rx="8" transform="rotate(-45 156 197)"/>
      <rect x="146" y="262" width="20" height="70" rx="8" transform="rotate(-135 156 297)"/>
      <rect x="176" y="62" width="20" height="70" rx="8" transform="rotate(-25 186 97)"/>
      <rect x="316" y="62" width="20" height="70" rx="8" transform="rotate(25 326 97)"/>
    </g>
    <circle cx="256" cy="232" r="110" fill="#06121d" opacity="0.65"/>
    <circle cx="256" cy="232" r="100" fill="#0e1e2d"/>
    <g>
      <path d="M210 132h92v72c0 10.5-4.2 19.5-12 26.8l-27 24.2h-14L222 231c-7.8-7.3-12-16.3-12-26.8z" fill="url(#mw-nozzle)"/>
      <path d="M228 256h56l-18 42h-20z" fill="#7f94ad"/>
      <rect x="237" y="298" width="38" height="34" rx="8" fill="#c2cede"/>
      <path d="M248 332h18l7 24h-32z" fill="#536175"/>
    </g>
    <g fill="#f5f7fc" stroke="#cfd8e6" stroke-width="4" stroke-linejoin="round">
      <path d="M128 376V218h46l32 80 34-80h46v158h-40v-88l-38 88h-22l-38-88v88z"/>
      <path d="M282 218h46l22 86 22-86h46v158h-38v-88l-24 88h-12l-24-88v88h-38z"/>
    </g>
  </g>
</svg>
